<svg width="40" height="40" viewBox="0 0 40 40" fill="none" xmlns="http://www.w3.org/2000/svg">
<path fill-rule="evenodd" clip-rule="evenodd" d="M40 20C40 8.95422 31.0458 0 20 0C8.95422 0 0 8.95422 0 20C0 29.9873 7.32089 38.2642 16.8889 39.7587V25.7778H11.7778V20H16.8889L16.8922 15.5938C16.8922 10.5813 19.8609 7.80111 24.4293 7.80111C26.6173 7.80111 28.8889 8.22222 28.8889 8.22222V13.1111H26.3842C23.8998 13.1111 23.1064 14.6667 23.1064 16.2484L23.1111 20H28.6667L27.7778 25.7778H23.1111V39.7587C32.6793 38.2642 40 29.9873 40 20Z" fill="url(#paint0_linear_0_8733)"/>
<path fill-rule="evenodd" clip-rule="evenodd" d="M27.7778 25.7778L28.6667 20H23.1111L23.1064 16.2485C23.1064 14.6667 23.8998 13.1111 26.3842 13.1111H28.8889V8.22223C28.8889 8.22223 26.6173 7.80112 24.4293 7.80112C19.8609 7.80112 16.8922 10.5813 16.8922 15.5938L16.8889 20H11.7778V25.7778H16.8889V39.7587C17.9027 39.9171 18.9415 40 20 40C21.0584 40 22.0973 39.9171 23.1111 39.7587V25.7778H27.7778Z" fill="white"/>
<defs>
<linearGradient id="paint0_linear_0_8733" x1="39.4156" y1="38.597" x2="39.4156" y2="0" gradientUnits="userSpaceOnUse">
<stop stop-color="#0062E0"/>
<stop offset="1" stop-color="#19AFFF"/>
</linearGradient>
</defs>
</svg>
